<?xml version="1.0" encoding="UTF-8"?>
<svg width="22px" height="24px" viewBox="0 0 22 24" version="1.1" xmlns="http://www.w3.org/2000/svg" xmlns:xlink="http://www.w3.org/1999/xlink">
    <title>Path</title>
    <g id="Page-1" stroke="none" stroke-width="1" fill="none" fill-rule="evenodd">
        <g id="000-Moléculas---Asistente-virtual-002A" transform="translate(-1041.000000, -912.000000)" fill="#FFFFFF" fill-rule="nonzero">
            <g id="Group-6" transform="translate(1032.000000, 728.000000)">
                <g id="Group" transform="translate(9.500000, 184.041667)">
                    <path d="M19.8333334,8.75000004 L19.2500001,8.75000004 C19.2500001,3.91750846 15.3324916,0 10.5,0 C5.66750846,0 1.75000001,3.91750846 1.75000001,8.75000004 L1.16666667,8.75000004 C0.522334461,8.75000004 0,9.2723345 0,9.91666671 L0,14.5833334 C0,15.2276656 0.522334461,15.7500001 1.16666667,15.7500001 L2.33333334,15.7500001 C2.33333334,16.3943323 2.8556678,16.9166667 3.5,16.9166667 C4.14433223,16.9166667 4.66666669,16.3943323 4.66666669,15.7500001 L4.66666669,8.75000004 C4.66666669,8.10566783 4.14433223,7.58333336 3.5,7.58333336 C3.32527578,7.587992 3.15383108,7.63184995 2.99833335,7.7116667 C3.51134899,3.96801743 6.70969673,1.17806815 10.4883334,1.17806815 C14.26697,1.17806815 17.4653178,3.96801743 17.9783334,7.7116667 C17.8299105,7.63514983 17.6667914,7.59138615 17.5,7.58333336 C16.8556679,7.58333336 16.3333334,8.10566783 16.3333334,8.75000004 L16.3333334,15.7500001 C16.3333334,16.3943323 16.8556679,16.9166667 17.5,16.9166667 C17.5776377,16.92327 17.6556958,16.92327 17.7333334,16.9166667 C16.9227743,18.8846475 15.3225046,20.4214144 13.3233334,21.1516668 C13.1750829,21.0762393 13.0113305,21.0362997 12.8450001,21.0350001 L8.1666667,21.0350001 C7.52233449,21.0350001 7,21.5573345 7,22.2016668 C7,22.845999 7.52233449,23.3683334 8.1666667,23.3683334 L12.8333334,23.3683334 C13.4776656,23.3683334 14,22.845999 14,22.2016668 C14,22.2016668 14,22.2016668 14,22.2016668 C16.7153122,21.1043012 18.7027909,18.722829 19.2966667,15.8550001 L19.8333334,15.8550001 C20.4776656,15.8550001 21,15.3326656 21,14.6883334 L21,10.0216667 C21.0295682,9.69449608 20.9198334,9.37002051 20.6977546,9.12795461 C20.4756758,8.88588872 20.1618347,8.74866665 19.8333334,8.75000004 Z" id="Path"></path>
                </g>
            </g>
        </g>
    </g>
</svg>